<?xml version="1.0" encoding="UTF-8" standalone="no"?>
<svg width="974px" height="908px" viewBox="0 0 974 908" version="1.1" xmlns="http://www.w3.org/2000/svg" xmlns:xlink="http://www.w3.org/1999/xlink" xmlns:sketch="http://www.bohemiancoding.com/sketch/ns">
    <!-- Generator: Sketch 3.5.2 (25235) - http://www.bohemiancoding.com/sketch -->
    <title>topology-1dc-3racks</title>
    <desc>Created with Sketch.</desc>
    <defs></defs>
    <g id="Page-1" stroke="none" stroke-width="1" fill="none" fill-rule="evenodd" sketch:type="MSPage">
        <g id="topology-1dc-3racks" sketch:type="MSArtboardGroup">
            <rect id="Cluster-container" stroke="#ECF0F1" stroke-width="5" sketch:type="MSShapeGroup" x="3" y="3" width="968" height="898" rx="15"></rect>
            <g id="Cluster" sketch:type="MSLayerGroup" transform="translate(3.000000, 3.000000)">
                <rect id="cluster-name-bg" stroke="#ECF0F1" stroke-width="5" fill="#FFFFFF" sketch:type="MSShapeGroup" x="0" y="0" width="83" height="34" rx="15"></rect>
                <text id="cluster" sketch:type="MSTextLayer" font-family="Helvetica Neue" font-size="20" font-weight="normal" sketch:alignment="middle" fill="#000000">
                    <tspan x="9.5" y="23">cluster</tspan>
                </text>
            </g>
            <g id="SFO-DC" sketch:type="MSLayerGroup" transform="translate(32.000000, 65.000000)">
                <rect id="DC1-container" stroke="#979797" stroke-width="6" sketch:type="MSShapeGroup" x="0" y="0" width="909" height="807" rx="8"></rect>
                <g id="Rack-3" transform="translate(609.000000, 53.000000)">
                    <rect id="Rack-container" stroke="#979797" stroke-width="6" sketch:type="MSShapeGroup" x="9" y="15" width="273" height="707" rx="8"></rect>
                    <g id="Server-3" transform="translate(17.000000, 497.000000)">
                        <rect id="Server-container" stroke="#BD1E2B" stroke-width="3" fill="#FFFFFF" sketch:type="MSShapeGroup" x="8" y="11" width="243" height="180" rx="8"></rect>
                        <g id="Backend" transform="translate(16.000000, 144.000000)">
                            <rect id="Backend-box" stroke="#979797" stroke-width="2" sketch:type="MSShapeGroup" x="0" y="0" width="228" height="41" rx="2"></rect>
                            <text sketch:type="MSTextLayer" font-family="Helvetica Neue" font-size="20" font-weight="normal" fill="#000000">
                                <tspan x="4" y="35">Backend</tspan>
                            </text>
                        </g>
                        <g id="Down-arrow" transform="translate(139.500000, 130.500000) scale(-1, -1) rotate(-90.000000) translate(-139.500000, -130.500000) translate(128.500000, 123.500000)" sketch:type="MSShapeGroup">
                            <g id="Arrow-Copy" transform="translate(15.071068, 6.692388) rotate(-45.000000) translate(-15.071068, -6.692388) translate(10.571068, 2.192388)" fill="#2C3E50">
                                <path d="M6.78999953,7.20089988 L0.943486393,7.20089988 C0.528722942,7.20089988 0.205205143,7.52704485 0.205205143,7.92936506 C0.205205143,8.33449018 0.535744917,8.65783025 0.943486393,8.65783025 L7.46692389,8.65783025 C7.47075477,8.65783025 7.47457787,8.65780242 7.478393,8.65774697 C7.49165894,8.65846096 7.50501929,8.65882229 7.51846472,8.65882229 C7.92358984,8.65882229 8.24692991,8.32828252 8.24692991,7.92054104 L8.24692991,1.39710354 C8.24692991,0.982340094 7.92078493,0.658822295 7.51846472,0.658822295 C7.1133396,0.658822295 6.78999953,0.989362069 6.78999953,1.39710354 L6.78999953,7.20089988 Z" id="Rectangle-10"></path>
                            </g>
                            <path d="M0.939453125,7 L15.9394531,7" id="Dashed-line" stroke="#2C3E50" stroke-width="2" stroke-linecap="round" stroke-dasharray="3"></path>
                        </g>
                        <g id="Up-arrow" transform="translate(112.500000, 130.500000) scale(-1, 1) rotate(-90.000000) translate(-112.500000, -130.500000) translate(101.500000, 123.500000)" sketch:type="MSShapeGroup">
                            <g id="Arrow-Copy" transform="translate(15.071068, 6.692388) rotate(-45.000000) translate(-15.071068, -6.692388) translate(10.571068, 2.192388)" fill="#2C3E50">
                                <path d="M6.78999953,7.20089988 L0.943486393,7.20089988 C0.528722942,7.20089988 0.205205143,7.52704485 0.205205143,7.92936506 C0.205205143,8.33449018 0.535744917,8.65783025 0.943486393,8.65783025 L7.46692389,8.65783025 C7.47075477,8.65783025 7.47457787,8.65780242 7.478393,8.65774697 C7.49165894,8.65846096 7.50501929,8.65882229 7.51846472,8.65882229 C7.92358984,8.65882229 8.24692991,8.32828252 8.24692991,7.92054104 L8.24692991,1.39710354 C8.24692991,0.982340094 7.92078493,0.658822295 7.51846472,0.658822295 C7.1133396,0.658822295 6.78999953,0.989362069 6.78999953,1.39710354 L6.78999953,7.20089988 Z" id="Rectangle-10"></path>
                            </g>
                            <path d="M0.939453125,7 L15.9394531,7" id="Dashed-line" stroke="#2C3E50" stroke-width="2" stroke-linecap="round" stroke-dasharray="3"></path>
                        </g>
                        <g id="Node" transform="translate(16.000000, 37.000000)">
                            <rect id="Dynomite-box" stroke="#979797" stroke-width="2" sketch:type="MSShapeGroup" x="0" y="0" width="228" height="79" rx="2"></rect>
                            <text sketch:type="MSTextLayer" font-family="Helvetica Neue" font-size="20" font-weight="normal" fill="#000000">
                                <tspan x="5" y="74">Node</tspan>
                            </text>
                            <text id="Token" sketch:type="MSTextLayer" font-family="Helvetica Neue" font-size="20" font-weight="normal" sketch:alignment="middle" fill="#2C3E50">
                                <tspan x="59.4" y="43">2863311530</tspan>
                            </text>
                        </g>
                        <g id="Server-name">
                            <rect id="server-name" stroke="#000000" fill="#BD1E2B" sketch:type="MSShapeGroup" x="0" y="0" width="108" height="34" rx="8"></rect>
                            <text id="sfo-r3-r3s3" sketch:type="MSTextLayer" font-family="Helvetica Neue" font-size="20" font-weight="normal" sketch:alignment="middle" fill="#FFFFFF">
                                <tspan x="14.07" y="23">sfo-r3-s3</tspan>
                            </text>
                        </g>
                    </g>
                    <g id="Server-2" transform="translate(17.000000, 274.000000)">
                        <rect id="Server-container" stroke="#BD1E2B" stroke-width="3" fill="#FFFFFF" sketch:type="MSShapeGroup" x="8" y="11" width="243" height="180" rx="8"></rect>
                        <g id="Backend" transform="translate(16.000000, 144.000000)">
                            <rect id="Backend-box" stroke="#979797" stroke-width="2" sketch:type="MSShapeGroup" x="0" y="0" width="228" height="41" rx="2"></rect>
                            <text sketch:type="MSTextLayer" font-family="Helvetica Neue" font-size="20" font-weight="normal" fill="#000000">
                                <tspan x="4" y="35">Backend</tspan>
                            </text>
                        </g>
                        <g id="Down-arrow" transform="translate(139.500000, 130.500000) scale(-1, -1) rotate(-90.000000) translate(-139.500000, -130.500000) translate(128.500000, 123.500000)" sketch:type="MSShapeGroup">
                            <g id="Arrow-Copy" transform="translate(15.071068, 6.692388) rotate(-45.000000) translate(-15.071068, -6.692388) translate(10.571068, 2.192388)" fill="#2C3E50">
                                <path d="M6.78999953,7.20089988 L0.943486393,7.20089988 C0.528722942,7.20089988 0.205205143,7.52704485 0.205205143,7.92936506 C0.205205143,8.33449018 0.535744917,8.65783025 0.943486393,8.65783025 L7.46692389,8.65783025 C7.47075477,8.65783025 7.47457787,8.65780242 7.478393,8.65774697 C7.49165894,8.65846096 7.50501929,8.65882229 7.51846472,8.65882229 C7.92358984,8.65882229 8.24692991,8.32828252 8.24692991,7.92054104 L8.24692991,1.39710354 C8.24692991,0.982340094 7.92078493,0.658822295 7.51846472,0.658822295 C7.1133396,0.658822295 6.78999953,0.989362069 6.78999953,1.39710354 L6.78999953,7.20089988 Z" id="Rectangle-10"></path>
                            </g>
                            <path d="M0.939453125,7 L15.9394531,7" id="Dashed-line" stroke="#2C3E50" stroke-width="2" stroke-linecap="round" stroke-dasharray="3"></path>
                        </g>
                        <g id="Up-arrow" transform="translate(112.500000, 130.500000) scale(-1, 1) rotate(-90.000000) translate(-112.500000, -130.500000) translate(101.500000, 123.500000)" sketch:type="MSShapeGroup">
                            <g id="Arrow-Copy" transform="translate(15.071068, 6.692388) rotate(-45.000000) translate(-15.071068, -6.692388) translate(10.571068, 2.192388)" fill="#2C3E50">
                                <path d="M6.78999953,7.20089988 L0.943486393,7.20089988 C0.528722942,7.20089988 0.205205143,7.52704485 0.205205143,7.92936506 C0.205205143,8.33449018 0.535744917,8.65783025 0.943486393,8.65783025 L7.46692389,8.65783025 C7.47075477,8.65783025 7.47457787,8.65780242 7.478393,8.65774697 C7.49165894,8.65846096 7.50501929,8.65882229 7.51846472,8.65882229 C7.92358984,8.65882229 8.24692991,8.32828252 8.24692991,7.92054104 L8.24692991,1.39710354 C8.24692991,0.982340094 7.92078493,0.658822295 7.51846472,0.658822295 C7.1133396,0.658822295 6.78999953,0.989362069 6.78999953,1.39710354 L6.78999953,7.20089988 Z" id="Rectangle-10"></path>
                            </g>
                            <path d="M0.939453125,7 L15.9394531,7" id="Dashed-line" stroke="#2C3E50" stroke-width="2" stroke-linecap="round" stroke-dasharray="3"></path>
                        </g>
                        <g id="Node" transform="translate(16.000000, 37.000000)">
                            <rect id="Dynomite-box" stroke="#979797" stroke-width="2" sketch:type="MSShapeGroup" x="0" y="0" width="228" height="79" rx="2"></rect>
                            <text sketch:type="MSTextLayer" font-family="Helvetica Neue" font-size="20" font-weight="normal" fill="#000000">
                                <tspan x="5" y="74">Node</tspan>
                            </text>
                            <text id="Token" sketch:type="MSTextLayer" font-family="Helvetica Neue" font-size="20" font-weight="normal" fill="#2C3E50">
                                <tspan x="59" y="43">1431655765</tspan>
                            </text>
                        </g>
                        <g id="Server-name">
                            <rect id="server-name" stroke="#000000" fill="#BD1E2B" sketch:type="MSShapeGroup" x="0" y="0" width="108" height="34" rx="8"></rect>
                            <text id="sfo-r3-r3r2" sketch:type="MSTextLayer" font-family="Helvetica Neue" font-size="20" font-weight="normal" sketch:alignment="middle" fill="#FFFFFF">
                                <tspan x="14.07" y="23">sfo-r3-s2</tspan>
                            </text>
                        </g>
                    </g>
                    <g id="Server-1" transform="translate(17.000000, 52.000000)">
                        <rect id="Server-container" stroke="#BD1E2B" stroke-width="3" fill="#FFFFFF" sketch:type="MSShapeGroup" x="8" y="11" width="243" height="180" rx="8"></rect>
                        <g id="Backend" transform="translate(16.000000, 144.000000)">
                            <rect id="Backend-box" stroke="#979797" stroke-width="2" sketch:type="MSShapeGroup" x="0" y="0" width="228" height="41" rx="2"></rect>
                            <text sketch:type="MSTextLayer" font-family="Helvetica Neue" font-size="20" font-weight="normal" fill="#000000">
                                <tspan x="4" y="35">Backend</tspan>
                            </text>
                        </g>
                        <g id="Down-arrow" transform="translate(139.500000, 130.500000) scale(-1, -1) rotate(-90.000000) translate(-139.500000, -130.500000) translate(128.500000, 123.500000)" sketch:type="MSShapeGroup">
                            <g id="Arrow-Copy" transform="translate(15.071068, 6.692388) rotate(-45.000000) translate(-15.071068, -6.692388) translate(10.571068, 2.192388)" fill="#2C3E50">
                                <path d="M6.78999953,7.20089988 L0.943486393,7.20089988 C0.528722942,7.20089988 0.205205143,7.52704485 0.205205143,7.92936506 C0.205205143,8.33449018 0.535744917,8.65783025 0.943486393,8.65783025 L7.46692389,8.65783025 C7.47075477,8.65783025 7.47457787,8.65780242 7.478393,8.65774697 C7.49165894,8.65846096 7.50501929,8.65882229 7.51846472,8.65882229 C7.92358984,8.65882229 8.24692991,8.32828252 8.24692991,7.92054104 L8.24692991,1.39710354 C8.24692991,0.982340094 7.92078493,0.658822295 7.51846472,0.658822295 C7.1133396,0.658822295 6.78999953,0.989362069 6.78999953,1.39710354 L6.78999953,7.20089988 Z" id="Rectangle-10"></path>
                            </g>
                            <path d="M0.939453125,7 L15.9394531,7" id="Dashed-line" stroke="#2C3E50" stroke-width="2" stroke-linecap="round" stroke-dasharray="3"></path>
                        </g>
                        <g id="Up-arrow" transform="translate(112.500000, 130.500000) scale(-1, 1) rotate(-90.000000) translate(-112.500000, -130.500000) translate(101.500000, 123.500000)" sketch:type="MSShapeGroup">
                            <g id="Arrow-Copy" transform="translate(15.071068, 6.692388) rotate(-45.000000) translate(-15.071068, -6.692388) translate(10.571068, 2.192388)" fill="#2C3E50">
                                <path d="M6.78999953,7.20089988 L0.943486393,7.20089988 C0.528722942,7.20089988 0.205205143,7.52704485 0.205205143,7.92936506 C0.205205143,8.33449018 0.535744917,8.65783025 0.943486393,8.65783025 L7.46692389,8.65783025 C7.47075477,8.65783025 7.47457787,8.65780242 7.478393,8.65774697 C7.49165894,8.65846096 7.50501929,8.65882229 7.51846472,8.65882229 C7.92358984,8.65882229 8.24692991,8.32828252 8.24692991,7.92054104 L8.24692991,1.39710354 C8.24692991,0.982340094 7.92078493,0.658822295 7.51846472,0.658822295 C7.1133396,0.658822295 6.78999953,0.989362069 6.78999953,1.39710354 L6.78999953,7.20089988 Z" id="Rectangle-10"></path>
                            </g>
                            <path d="M0.939453125,7 L15.9394531,7" id="Dashed-line" stroke="#2C3E50" stroke-width="2" stroke-linecap="round" stroke-dasharray="3"></path>
                        </g>
                        <g id="Node" transform="translate(16.000000, 37.000000)">
                            <rect id="Dynomite-box" stroke="#979797" stroke-width="2" sketch:type="MSShapeGroup" x="0" y="0" width="228" height="79" rx="2"></rect>
                            <text sketch:type="MSTextLayer" font-family="Helvetica Neue" font-size="20" font-weight="normal" fill="#000000">
                                <tspan x="5" y="74">Node</tspan>
                            </text>
                            <text id="Token" sketch:type="MSTextLayer" font-family="Helvetica Neue" font-size="20" font-weight="normal" sketch:alignment="middle" fill="#2C3E50">
                                <tspan x="108.94" y="43">0</tspan>
                            </text>
                        </g>
                        <g id="Server-name">
                            <rect id="server-name" stroke="#000000" fill="#BD1E2B" sketch:type="MSShapeGroup" x="0" y="0" width="108" height="34" rx="8"></rect>
                            <text id="sfo-r3-r3s1" sketch:type="MSTextLayer" font-family="Helvetica Neue" font-size="20" font-weight="normal" sketch:alignment="middle" fill="#FFFFFF">
                                <tspan x="14.07" y="23">sfo-r3-s1</tspan>
                            </text>
                        </g>
                    </g>
                    <g id="Rack-name">
                        <rect id="rack-name-bg" stroke="#979797" stroke-width="5" fill="#FFFFFF" sketch:type="MSShapeGroup" x="0" y="0" width="67" height="34" rx="8"></rect>
                        <text id="r3" sketch:type="MSTextLayer" font-family="Helvetica Neue" font-size="20" font-weight="normal" sketch:alignment="middle" fill="#000000">
                            <tspan x="24.61" y="24">r3</tspan>
                        </text>
                    </g>
                </g>
                <g id="Rack-2" transform="translate(309.000000, 53.000000)">
                    <rect id="Rack-container" stroke="#979797" stroke-width="6" sketch:type="MSShapeGroup" x="9" y="15" width="273" height="707" rx="8"></rect>
                    <g id="Server-3" transform="translate(17.000000, 497.000000)">
                        <rect id="Server-container" stroke="#BD1E2B" stroke-width="3" fill="#FFFFFF" sketch:type="MSShapeGroup" x="8" y="11" width="243" height="180" rx="8"></rect>
                        <g id="Backend" transform="translate(16.000000, 144.000000)">
                            <rect id="Backend-box" stroke="#979797" stroke-width="2" sketch:type="MSShapeGroup" x="0" y="0" width="228" height="41" rx="2"></rect>
                            <text sketch:type="MSTextLayer" font-family="Helvetica Neue" font-size="20" font-weight="normal" fill="#000000">
                                <tspan x="4" y="35">Backend</tspan>
                            </text>
                        </g>
                        <g id="Down-arrow" transform="translate(139.500000, 130.500000) scale(-1, -1) rotate(-90.000000) translate(-139.500000, -130.500000) translate(128.500000, 123.500000)" sketch:type="MSShapeGroup">
                            <g id="Arrow-Copy" transform="translate(15.071068, 6.692388) rotate(-45.000000) translate(-15.071068, -6.692388) translate(10.571068, 2.192388)" fill="#2C3E50">
                                <path d="M6.78999953,7.20089988 L0.943486393,7.20089988 C0.528722942,7.20089988 0.205205143,7.52704485 0.205205143,7.92936506 C0.205205143,8.33449018 0.535744917,8.65783025 0.943486393,8.65783025 L7.46692389,8.65783025 C7.47075477,8.65783025 7.47457787,8.65780242 7.478393,8.65774697 C7.49165894,8.65846096 7.50501929,8.65882229 7.51846472,8.65882229 C7.92358984,8.65882229 8.24692991,8.32828252 8.24692991,7.92054104 L8.24692991,1.39710354 C8.24692991,0.982340094 7.92078493,0.658822295 7.51846472,0.658822295 C7.1133396,0.658822295 6.78999953,0.989362069 6.78999953,1.39710354 L6.78999953,7.20089988 Z" id="Rectangle-10"></path>
                            </g>
                            <path d="M0.939453125,7 L15.9394531,7" id="Dashed-line" stroke="#2C3E50" stroke-width="2" stroke-linecap="round" stroke-dasharray="3"></path>
                        </g>
                        <g id="Up-arrow" transform="translate(112.500000, 130.500000) scale(-1, 1) rotate(-90.000000) translate(-112.500000, -130.500000) translate(101.500000, 123.500000)" sketch:type="MSShapeGroup">
                            <g id="Arrow-Copy" transform="translate(15.071068, 6.692388) rotate(-45.000000) translate(-15.071068, -6.692388) translate(10.571068, 2.192388)" fill="#2C3E50">
                                <path d="M6.78999953,7.20089988 L0.943486393,7.20089988 C0.528722942,7.20089988 0.205205143,7.52704485 0.205205143,7.92936506 C0.205205143,8.33449018 0.535744917,8.65783025 0.943486393,8.65783025 L7.46692389,8.65783025 C7.47075477,8.65783025 7.47457787,8.65780242 7.478393,8.65774697 C7.49165894,8.65846096 7.50501929,8.65882229 7.51846472,8.65882229 C7.92358984,8.65882229 8.24692991,8.32828252 8.24692991,7.92054104 L8.24692991,1.39710354 C8.24692991,0.982340094 7.92078493,0.658822295 7.51846472,0.658822295 C7.1133396,0.658822295 6.78999953,0.989362069 6.78999953,1.39710354 L6.78999953,7.20089988 Z" id="Rectangle-10"></path>
                            </g>
                            <path d="M0.939453125,7 L15.9394531,7" id="Dashed-line" stroke="#2C3E50" stroke-width="2" stroke-linecap="round" stroke-dasharray="3"></path>
                        </g>
                        <g id="Node" transform="translate(16.000000, 37.000000)">
                            <rect id="Dynomite-box" stroke="#979797" stroke-width="2" sketch:type="MSShapeGroup" x="0" y="0" width="228" height="79" rx="2"></rect>
                            <text sketch:type="MSTextLayer" font-family="Helvetica Neue" font-size="20" font-weight="normal" fill="#000000">
                                <tspan x="5" y="74">Node</tspan>
                            </text>
                            <text id="Token" sketch:type="MSTextLayer" font-family="Helvetica Neue" font-size="20" font-weight="normal" sketch:alignment="middle" fill="#2C3E50">
                                <tspan x="59.4" y="43">2863311530</tspan>
                            </text>
                        </g>
                        <g id="Server-name">
                            <rect id="server-name" stroke="#000000" fill="#BD1E2B" sketch:type="MSShapeGroup" x="0" y="0" width="108" height="34" rx="8"></rect>
                            <text id="sfo-r2-r2s3" sketch:type="MSTextLayer" font-family="Helvetica Neue" font-size="20" font-weight="normal" sketch:alignment="middle" fill="#FFFFFF">
                                <tspan x="14.07" y="23">sfo-r2-s3</tspan>
                            </text>
                        </g>
                    </g>
                    <g id="Server-2" transform="translate(17.000000, 274.000000)">
                        <rect id="Server-container" stroke="#BD1E2B" stroke-width="3" fill="#FFFFFF" sketch:type="MSShapeGroup" x="8" y="11" width="243" height="180" rx="8"></rect>
                        <g id="Backend" transform="translate(16.000000, 144.000000)">
                            <rect id="Backend-box" stroke="#979797" stroke-width="2" sketch:type="MSShapeGroup" x="0" y="0" width="228" height="41" rx="2"></rect>
                            <text sketch:type="MSTextLayer" font-family="Helvetica Neue" font-size="20" font-weight="normal" fill="#000000">
                                <tspan x="4" y="35">Backend</tspan>
                            </text>
                        </g>
                        <g id="Down-arrow" transform="translate(139.500000, 130.500000) scale(-1, -1) rotate(-90.000000) translate(-139.500000, -130.500000) translate(128.500000, 123.500000)" sketch:type="MSShapeGroup">
                            <g id="Arrow-Copy" transform="translate(15.071068, 6.692388) rotate(-45.000000) translate(-15.071068, -6.692388) translate(10.571068, 2.192388)" fill="#2C3E50">
                                <path d="M6.78999953,7.20089988 L0.943486393,7.20089988 C0.528722942,7.20089988 0.205205143,7.52704485 0.205205143,7.92936506 C0.205205143,8.33449018 0.535744917,8.65783025 0.943486393,8.65783025 L7.46692389,8.65783025 C7.47075477,8.65783025 7.47457787,8.65780242 7.478393,8.65774697 C7.49165894,8.65846096 7.50501929,8.65882229 7.51846472,8.65882229 C7.92358984,8.65882229 8.24692991,8.32828252 8.24692991,7.92054104 L8.24692991,1.39710354 C8.24692991,0.982340094 7.92078493,0.658822295 7.51846472,0.658822295 C7.1133396,0.658822295 6.78999953,0.989362069 6.78999953,1.39710354 L6.78999953,7.20089988 Z" id="Rectangle-10"></path>
                            </g>
                            <path d="M0.939453125,7 L15.9394531,7" id="Dashed-line" stroke="#2C3E50" stroke-width="2" stroke-linecap="round" stroke-dasharray="3"></path>
                        </g>
                        <g id="Up-arrow" transform="translate(112.500000, 130.500000) scale(-1, 1) rotate(-90.000000) translate(-112.500000, -130.500000) translate(101.500000, 123.500000)" sketch:type="MSShapeGroup">
                            <g id="Arrow-Copy" transform="translate(15.071068, 6.692388) rotate(-45.000000) translate(-15.071068, -6.692388) translate(10.571068, 2.192388)" fill="#2C3E50">
                                <path d="M6.78999953,7.20089988 L0.943486393,7.20089988 C0.528722942,7.20089988 0.205205143,7.52704485 0.205205143,7.92936506 C0.205205143,8.33449018 0.535744917,8.65783025 0.943486393,8.65783025 L7.46692389,8.65783025 C7.47075477,8.65783025 7.47457787,8.65780242 7.478393,8.65774697 C7.49165894,8.65846096 7.50501929,8.65882229 7.51846472,8.65882229 C7.92358984,8.65882229 8.24692991,8.32828252 8.24692991,7.92054104 L8.24692991,1.39710354 C8.24692991,0.982340094 7.92078493,0.658822295 7.51846472,0.658822295 C7.1133396,0.658822295 6.78999953,0.989362069 6.78999953,1.39710354 L6.78999953,7.20089988 Z" id="Rectangle-10"></path>
                            </g>
                            <path d="M0.939453125,7 L15.9394531,7" id="Dashed-line" stroke="#2C3E50" stroke-width="2" stroke-linecap="round" stroke-dasharray="3"></path>
                        </g>
                        <g id="Node" transform="translate(16.000000, 37.000000)">
                            <rect id="Dynomite-box" stroke="#979797" stroke-width="2" sketch:type="MSShapeGroup" x="0" y="0" width="228" height="79" rx="2"></rect>
                            <text sketch:type="MSTextLayer" font-family="Helvetica Neue" font-size="20" font-weight="normal" fill="#000000">
                                <tspan x="5" y="74">Node</tspan>
                            </text>
                            <text id="Token" sketch:type="MSTextLayer" font-family="Helvetica Neue" font-size="20" font-weight="normal" fill="#2C3E50">
                                <tspan x="59" y="43">1431655765</tspan>
                            </text>
                        </g>
                        <g id="Server-name">
                            <rect id="server-name" stroke="#000000" fill="#BD1E2B" sketch:type="MSShapeGroup" x="0" y="0" width="108" height="34" rx="8"></rect>
                            <text id="sfo-r2-r2s2" sketch:type="MSTextLayer" font-family="Helvetica Neue" font-size="20" font-weight="normal" sketch:alignment="middle" fill="#FFFFFF">
                                <tspan x="14.07" y="23">sfo-r2-s2</tspan>
                            </text>
                        </g>
                    </g>
                    <g id="Server-1" transform="translate(17.000000, 52.000000)">
                        <rect id="Server-container" stroke="#BD1E2B" stroke-width="3" fill="#FFFFFF" sketch:type="MSShapeGroup" x="8" y="11" width="243" height="180" rx="8"></rect>
                        <g id="Backend" transform="translate(16.000000, 144.000000)">
                            <rect id="Backend-box" stroke="#979797" stroke-width="2" sketch:type="MSShapeGroup" x="0" y="0" width="228" height="41" rx="2"></rect>
                            <text sketch:type="MSTextLayer" font-family="Helvetica Neue" font-size="20" font-weight="normal" fill="#000000">
                                <tspan x="4" y="35">Backend</tspan>
                            </text>
                        </g>
                        <g id="Down-arrow" transform="translate(139.500000, 130.500000) scale(-1, -1) rotate(-90.000000) translate(-139.500000, -130.500000) translate(128.500000, 123.500000)" sketch:type="MSShapeGroup">
                            <g id="Arrow-Copy" transform="translate(15.071068, 6.692388) rotate(-45.000000) translate(-15.071068, -6.692388) translate(10.571068, 2.192388)" fill="#2C3E50">
                                <path d="M6.78999953,7.20089988 L0.943486393,7.20089988 C0.528722942,7.20089988 0.205205143,7.52704485 0.205205143,7.92936506 C0.205205143,8.33449018 0.535744917,8.65783025 0.943486393,8.65783025 L7.46692389,8.65783025 C7.47075477,8.65783025 7.47457787,8.65780242 7.478393,8.65774697 C7.49165894,8.65846096 7.50501929,8.65882229 7.51846472,8.65882229 C7.92358984,8.65882229 8.24692991,8.32828252 8.24692991,7.92054104 L8.24692991,1.39710354 C8.24692991,0.982340094 7.92078493,0.658822295 7.51846472,0.658822295 C7.1133396,0.658822295 6.78999953,0.989362069 6.78999953,1.39710354 L6.78999953,7.20089988 Z" id="Rectangle-10"></path>
                            </g>
                            <path d="M0.939453125,7 L15.9394531,7" id="Dashed-line" stroke="#2C3E50" stroke-width="2" stroke-linecap="round" stroke-dasharray="3"></path>
                        </g>
                        <g id="Up-arrow" transform="translate(112.500000, 130.500000) scale(-1, 1) rotate(-90.000000) translate(-112.500000, -130.500000) translate(101.500000, 123.500000)" sketch:type="MSShapeGroup">
                            <g id="Arrow-Copy" transform="translate(15.071068, 6.692388) rotate(-45.000000) translate(-15.071068, -6.692388) translate(10.571068, 2.192388)" fill="#2C3E50">
                                <path d="M6.78999953,7.20089988 L0.943486393,7.20089988 C0.528722942,7.20089988 0.205205143,7.52704485 0.205205143,7.92936506 C0.205205143,8.33449018 0.535744917,8.65783025 0.943486393,8.65783025 L7.46692389,8.65783025 C7.47075477,8.65783025 7.47457787,8.65780242 7.478393,8.65774697 C7.49165894,8.65846096 7.50501929,8.65882229 7.51846472,8.65882229 C7.92358984,8.65882229 8.24692991,8.32828252 8.24692991,7.92054104 L8.24692991,1.39710354 C8.24692991,0.982340094 7.92078493,0.658822295 7.51846472,0.658822295 C7.1133396,0.658822295 6.78999953,0.989362069 6.78999953,1.39710354 L6.78999953,7.20089988 Z" id="Rectangle-10"></path>
                            </g>
                            <path d="M0.939453125,7 L15.9394531,7" id="Dashed-line" stroke="#2C3E50" stroke-width="2" stroke-linecap="round" stroke-dasharray="3"></path>
                        </g>
                        <g id="Node" transform="translate(16.000000, 37.000000)">
                            <rect id="Dynomite-box" stroke="#979797" stroke-width="2" sketch:type="MSShapeGroup" x="0" y="0" width="228" height="79" rx="2"></rect>
                            <text sketch:type="MSTextLayer" font-family="Helvetica Neue" font-size="20" font-weight="normal" fill="#000000">
                                <tspan x="5" y="74">Node</tspan>
                            </text>
                            <text id="Token" sketch:type="MSTextLayer" font-family="Helvetica Neue" font-size="20" font-weight="normal" sketch:alignment="middle" fill="#2C3E50">
                                <tspan x="108.94" y="43">0</tspan>
                            </text>
                        </g>
                        <g id="Server-name">
                            <rect id="server-name" stroke="#000000" fill="#BD1E2B" sketch:type="MSShapeGroup" x="0" y="0" width="108" height="34" rx="8"></rect>
                            <text id="sfo-r2-r2s1" sketch:type="MSTextLayer" font-family="Helvetica Neue" font-size="20" font-weight="normal" sketch:alignment="middle" fill="#FFFFFF">
                                <tspan x="14.07" y="23">sfo-r2-s1</tspan>
                            </text>
                        </g>
                    </g>
                    <g id="Rack-name">
                        <rect id="rack-name-bg" stroke="#979797" stroke-width="5" fill="#FFFFFF" sketch:type="MSShapeGroup" x="0" y="0" width="67" height="34" rx="8"></rect>
                        <text id="r2" sketch:type="MSTextLayer" font-family="Helvetica Neue" font-size="20" font-weight="normal" sketch:alignment="middle" fill="#000000">
                            <tspan x="24.61" y="24">r2</tspan>
                        </text>
                    </g>
                </g>
                <g id="Rack-1" transform="translate(9.000000, 53.000000)">
                    <rect id="Rack-container" stroke="#979797" stroke-width="6" sketch:type="MSShapeGroup" x="9" y="15" width="273" height="707" rx="8"></rect>
                    <g id="Server-3" transform="translate(17.000000, 497.000000)">
                        <rect id="Server-container" stroke="#BD1E2B" stroke-width="3" fill="#FFFFFF" sketch:type="MSShapeGroup" x="8" y="11" width="243" height="180" rx="8"></rect>
                        <g id="Backend" transform="translate(16.000000, 144.000000)">
                            <rect id="Backend-box" stroke="#979797" stroke-width="2" sketch:type="MSShapeGroup" x="0" y="0" width="228" height="41" rx="2"></rect>
                            <text sketch:type="MSTextLayer" font-family="Helvetica Neue" font-size="20" font-weight="normal" fill="#000000">
                                <tspan x="4" y="35">Backend</tspan>
                            </text>
                        </g>
                        <g id="Down-arrow" transform="translate(139.500000, 130.500000) scale(-1, -1) rotate(-90.000000) translate(-139.500000, -130.500000) translate(128.500000, 123.500000)" sketch:type="MSShapeGroup">
                            <g id="Arrow-Copy" transform="translate(15.071068, 6.692388) rotate(-45.000000) translate(-15.071068, -6.692388) translate(10.571068, 2.192388)" fill="#2C3E50">
                                <path d="M6.78999953,7.20089988 L0.943486393,7.20089988 C0.528722942,7.20089988 0.205205143,7.52704485 0.205205143,7.92936506 C0.205205143,8.33449018 0.535744917,8.65783025 0.943486393,8.65783025 L7.46692389,8.65783025 C7.47075477,8.65783025 7.47457787,8.65780242 7.478393,8.65774697 C7.49165894,8.65846096 7.50501929,8.65882229 7.51846472,8.65882229 C7.92358984,8.65882229 8.24692991,8.32828252 8.24692991,7.92054104 L8.24692991,1.39710354 C8.24692991,0.982340094 7.92078493,0.658822295 7.51846472,0.658822295 C7.1133396,0.658822295 6.78999953,0.989362069 6.78999953,1.39710354 L6.78999953,7.20089988 Z" id="Rectangle-10"></path>
                            </g>
                            <path d="M0.939453125,7 L15.9394531,7" id="Dashed-line" stroke="#2C3E50" stroke-width="2" stroke-linecap="round" stroke-dasharray="3"></path>
                        </g>
                        <g id="Up-arrow" transform="translate(112.500000, 130.500000) scale(-1, 1) rotate(-90.000000) translate(-112.500000, -130.500000) translate(101.500000, 123.500000)" sketch:type="MSShapeGroup">
                            <g id="Arrow-Copy" transform="translate(15.071068, 6.692388) rotate(-45.000000) translate(-15.071068, -6.692388) translate(10.571068, 2.192388)" fill="#2C3E50">
                                <path d="M6.78999953,7.20089988 L0.943486393,7.20089988 C0.528722942,7.20089988 0.205205143,7.52704485 0.205205143,7.92936506 C0.205205143,8.33449018 0.535744917,8.65783025 0.943486393,8.65783025 L7.46692389,8.65783025 C7.47075477,8.65783025 7.47457787,8.65780242 7.478393,8.65774697 C7.49165894,8.65846096 7.50501929,8.65882229 7.51846472,8.65882229 C7.92358984,8.65882229 8.24692991,8.32828252 8.24692991,7.92054104 L8.24692991,1.39710354 C8.24692991,0.982340094 7.92078493,0.658822295 7.51846472,0.658822295 C7.1133396,0.658822295 6.78999953,0.989362069 6.78999953,1.39710354 L6.78999953,7.20089988 Z" id="Rectangle-10"></path>
                            </g>
                            <path d="M0.939453125,7 L15.9394531,7" id="Dashed-line" stroke="#2C3E50" stroke-width="2" stroke-linecap="round" stroke-dasharray="3"></path>
                        </g>
                        <g id="Node" transform="translate(16.000000, 37.000000)">
                            <rect id="Dynomite-box" stroke="#979797" stroke-width="2" sketch:type="MSShapeGroup" x="0" y="0" width="228" height="79" rx="2"></rect>
                            <text sketch:type="MSTextLayer" font-family="Helvetica Neue" font-size="20" font-weight="normal" fill="#000000">
                                <tspan x="5" y="74">Node</tspan>
                            </text>
                            <text id="Token" sketch:type="MSTextLayer" font-family="Helvetica Neue" font-size="20" font-weight="normal" sketch:alignment="middle" fill="#2C3E50">
                                <tspan x="59.4" y="43">2863311530</tspan>
                            </text>
                        </g>
                        <g id="Server-name">
                            <rect id="server-name" stroke="#000000" fill="#BD1E2B" sketch:type="MSShapeGroup" x="0" y="0" width="108" height="34" rx="8"></rect>
                            <text id="sfo-r1-r1s3" sketch:type="MSTextLayer" font-family="Helvetica Neue" font-size="20" font-weight="normal" sketch:alignment="middle" fill="#FFFFFF">
                                <tspan x="14.07" y="23">sfo-r1-s3</tspan>
                            </text>
                        </g>
                    </g>
                    <g id="Server-2" transform="translate(17.000000, 274.000000)">
                        <rect id="Server-container" stroke="#BD1E2B" stroke-width="3" fill="#FFFFFF" sketch:type="MSShapeGroup" x="8" y="11" width="243" height="180" rx="8"></rect>
                        <g id="Backend" transform="translate(16.000000, 144.000000)">
                            <rect id="Backend-box" stroke="#979797" stroke-width="2" sketch:type="MSShapeGroup" x="0" y="0" width="228" height="41" rx="2"></rect>
                            <text sketch:type="MSTextLayer" font-family="Helvetica Neue" font-size="20" font-weight="normal" fill="#000000">
                                <tspan x="4" y="35">Backend</tspan>
                            </text>
                        </g>
                        <g id="Down-arrow" transform="translate(139.500000, 130.500000) scale(-1, -1) rotate(-90.000000) translate(-139.500000, -130.500000) translate(128.500000, 123.500000)" sketch:type="MSShapeGroup">
                            <g id="Arrow-Copy" transform="translate(15.071068, 6.692388) rotate(-45.000000) translate(-15.071068, -6.692388) translate(10.571068, 2.192388)" fill="#2C3E50">
                                <path d="M6.78999953,7.20089988 L0.943486393,7.20089988 C0.528722942,7.20089988 0.205205143,7.52704485 0.205205143,7.92936506 C0.205205143,8.33449018 0.535744917,8.65783025 0.943486393,8.65783025 L7.46692389,8.65783025 C7.47075477,8.65783025 7.47457787,8.65780242 7.478393,8.65774697 C7.49165894,8.65846096 7.50501929,8.65882229 7.51846472,8.65882229 C7.92358984,8.65882229 8.24692991,8.32828252 8.24692991,7.92054104 L8.24692991,1.39710354 C8.24692991,0.982340094 7.92078493,0.658822295 7.51846472,0.658822295 C7.1133396,0.658822295 6.78999953,0.989362069 6.78999953,1.39710354 L6.78999953,7.20089988 Z" id="Rectangle-10"></path>
                            </g>
                            <path d="M0.939453125,7 L15.9394531,7" id="Dashed-line" stroke="#2C3E50" stroke-width="2" stroke-linecap="round" stroke-dasharray="3"></path>
                        </g>
                        <g id="Up-arrow" transform="translate(112.500000, 130.500000) scale(-1, 1) rotate(-90.000000) translate(-112.500000, -130.500000) translate(101.500000, 123.500000)" sketch:type="MSShapeGroup">
                            <g id="Arrow-Copy" transform="translate(15.071068, 6.692388) rotate(-45.000000) translate(-15.071068, -6.692388) translate(10.571068, 2.192388)" fill="#2C3E50">
                                <path d="M6.78999953,7.20089988 L0.943486393,7.20089988 C0.528722942,7.20089988 0.205205143,7.52704485 0.205205143,7.92936506 C0.205205143,8.33449018 0.535744917,8.65783025 0.943486393,8.65783025 L7.46692389,8.65783025 C7.47075477,8.65783025 7.47457787,8.65780242 7.478393,8.65774697 C7.49165894,8.65846096 7.50501929,8.65882229 7.51846472,8.65882229 C7.92358984,8.65882229 8.24692991,8.32828252 8.24692991,7.92054104 L8.24692991,1.39710354 C8.24692991,0.982340094 7.92078493,0.658822295 7.51846472,0.658822295 C7.1133396,0.658822295 6.78999953,0.989362069 6.78999953,1.39710354 L6.78999953,7.20089988 Z" id="Rectangle-10"></path>
                            </g>
                            <path d="M0.939453125,7 L15.9394531,7" id="Dashed-line" stroke="#2C3E50" stroke-width="2" stroke-linecap="round" stroke-dasharray="3"></path>
                        </g>
                        <g id="Node" transform="translate(16.000000, 37.000000)">
                            <rect id="Dynomite-box" stroke="#979797" stroke-width="2" sketch:type="MSShapeGroup" x="0" y="0" width="228" height="79" rx="2"></rect>
                            <text sketch:type="MSTextLayer" font-family="Helvetica Neue" font-size="20" font-weight="normal" fill="#000000">
                                <tspan x="5" y="74">Node</tspan>
                            </text>
                            <text id="Token" sketch:type="MSTextLayer" font-family="Helvetica Neue" font-size="20" font-weight="normal" fill="#2C3E50">
                                <tspan x="59" y="43">1431655765</tspan>
                            </text>
                        </g>
                        <g id="Server-name">
                            <rect id="server-name" stroke="#000000" fill="#BD1E2B" sketch:type="MSShapeGroup" x="0" y="0" width="108" height="34" rx="8"></rect>
                            <text id="sfo-r1-r1s2" sketch:type="MSTextLayer" font-family="Helvetica Neue" font-size="20" font-weight="normal" sketch:alignment="middle" fill="#FFFFFF">
                                <tspan x="14.07" y="23">sfo-r1-s2</tspan>
                            </text>
                        </g>
                    </g>
                    <g id="Server-1" transform="translate(17.000000, 52.000000)">
                        <rect id="Server-container" stroke="#BD1E2B" stroke-width="3" fill="#FFFFFF" sketch:type="MSShapeGroup" x="8" y="11" width="243" height="180" rx="8"></rect>
                        <g id="Backend" transform="translate(16.000000, 144.000000)">
                            <rect id="Backend-box" stroke="#979797" stroke-width="2" sketch:type="MSShapeGroup" x="0" y="0" width="228" height="41" rx="2"></rect>
                            <text sketch:type="MSTextLayer" font-family="Helvetica Neue" font-size="20" font-weight="normal" fill="#000000">
                                <tspan x="4" y="35">Backend</tspan>
                            </text>
                        </g>
                        <g id="Down-arrow" transform="translate(139.500000, 130.500000) scale(-1, -1) rotate(-90.000000) translate(-139.500000, -130.500000) translate(128.500000, 123.500000)" sketch:type="MSShapeGroup">
                            <g id="Arrow-Copy" transform="translate(15.071068, 6.692388) rotate(-45.000000) translate(-15.071068, -6.692388) translate(10.571068, 2.192388)" fill="#2C3E50">
                                <path d="M6.78999953,7.20089988 L0.943486393,7.20089988 C0.528722942,7.20089988 0.205205143,7.52704485 0.205205143,7.92936506 C0.205205143,8.33449018 0.535744917,8.65783025 0.943486393,8.65783025 L7.46692389,8.65783025 C7.47075477,8.65783025 7.47457787,8.65780242 7.478393,8.65774697 C7.49165894,8.65846096 7.50501929,8.65882229 7.51846472,8.65882229 C7.92358984,8.65882229 8.24692991,8.32828252 8.24692991,7.92054104 L8.24692991,1.39710354 C8.24692991,0.982340094 7.92078493,0.658822295 7.51846472,0.658822295 C7.1133396,0.658822295 6.78999953,0.989362069 6.78999953,1.39710354 L6.78999953,7.20089988 Z" id="Rectangle-10"></path>
                            </g>
                            <path d="M0.939453125,7 L15.9394531,7" id="Dashed-line" stroke="#2C3E50" stroke-width="2" stroke-linecap="round" stroke-dasharray="3"></path>
                        </g>
                        <g id="Up-arrow" transform="translate(112.500000, 130.500000) scale(-1, 1) rotate(-90.000000) translate(-112.500000, -130.500000) translate(101.500000, 123.500000)" sketch:type="MSShapeGroup">
                            <g id="Arrow-Copy" transform="translate(15.071068, 6.692388) rotate(-45.000000) translate(-15.071068, -6.692388) translate(10.571068, 2.192388)" fill="#2C3E50">
                                <path d="M6.78999953,7.20089988 L0.943486393,7.20089988 C0.528722942,7.20089988 0.205205143,7.52704485 0.205205143,7.92936506 C0.205205143,8.33449018 0.535744917,8.65783025 0.943486393,8.65783025 L7.46692389,8.65783025 C7.47075477,8.65783025 7.47457787,8.65780242 7.478393,8.65774697 C7.49165894,8.65846096 7.50501929,8.65882229 7.51846472,8.65882229 C7.92358984,8.65882229 8.24692991,8.32828252 8.24692991,7.92054104 L8.24692991,1.39710354 C8.24692991,0.982340094 7.92078493,0.658822295 7.51846472,0.658822295 C7.1133396,0.658822295 6.78999953,0.989362069 6.78999953,1.39710354 L6.78999953,7.20089988 Z" id="Rectangle-10"></path>
                            </g>
                            <path d="M0.939453125,7 L15.9394531,7" id="Dashed-line" stroke="#2C3E50" stroke-width="2" stroke-linecap="round" stroke-dasharray="3"></path>
                        </g>
                        <g id="Node" transform="translate(16.000000, 37.000000)">
                            <rect id="Dynomite-box" stroke="#979797" stroke-width="2" sketch:type="MSShapeGroup" x="0" y="0" width="228" height="79" rx="2"></rect>
                            <text sketch:type="MSTextLayer" font-family="Helvetica Neue" font-size="20" font-weight="normal" fill="#000000">
                                <tspan x="5" y="74">Node</tspan>
                            </text>
                            <text id="Token" sketch:type="MSTextLayer" font-family="Helvetica Neue" font-size="20" font-weight="normal" sketch:alignment="middle" fill="#2C3E50">
                                <tspan x="108.94" y="43">0</tspan>
                            </text>
                        </g>
                        <g id="Server-name">
                            <rect id="server-name" stroke="#000000" fill="#BD1E2B" sketch:type="MSShapeGroup" x="0" y="0" width="108" height="34" rx="8"></rect>
                            <text id="sfo-r1-r1s1" sketch:type="MSTextLayer" font-family="Helvetica Neue" font-size="20" font-weight="normal" sketch:alignment="middle" fill="#FFFFFF">
                                <tspan x="14.07" y="23">sfo-r1-s1</tspan>
                            </text>
                        </g>
                    </g>
                    <g id="Rack-name">
                        <rect id="rack-name-bg" stroke="#979797" stroke-width="5" fill="#FFFFFF" sketch:type="MSShapeGroup" x="0" y="0" width="67" height="34" rx="8"></rect>
                        <text id="r1" sketch:type="MSTextLayer" font-family="Helvetica Neue" font-size="20" font-weight="normal" sketch:alignment="middle" fill="#000000">
                            <tspan x="24.61" y="24">r1</tspan>
                        </text>
                    </g>
                </g>
                <g id="DC-name">
                    <rect id="rack-name-bg" stroke="#979797" stroke-width="5" fill="#FFFFFF" sketch:type="MSShapeGroup" x="0" y="0" width="67" height="34" rx="8"></rect>
                    <text id="sfo" sketch:type="MSTextLayer" font-family="Helvetica Neue" font-size="20" font-weight="normal" sketch:alignment="middle" fill="#000000">
                        <tspan x="19.8" y="24">sfo</tspan>
                    </text>
                </g>
            </g>
        </g>
    </g>
</svg>